<svg width="8" height="8" viewBox="0 0 8 8" fill="none" xmlns="http://www.w3.org/2000/svg">
<g id="check-verified-02">
<rect id="Rectangle 30" x="2.90625" y="2.90625" width="3.18182" height="2.54545" fill="white"/>
<path id="Solid" fill-rule="evenodd" clip-rule="evenodd" d="M1.00789 4.17969C1.0078 4.13711 0.999434 4.09457 0.982803 4.05449L0.753255 3.4987C0.704759 3.38165 0.679708 3.256 0.679688 3.1293C0.679667 3.00253 0.704625 2.877 0.753136 2.75988C0.801647 2.64276 0.87276 2.53635 0.962412 2.44672C1.05204 2.35712 1.15844 2.28605 1.27554 2.23758L1.83042 2.00773C1.91078 1.9745 1.97488 1.91069 2.00833 1.83042L2.23824 1.27537C2.33617 1.03893 2.52401 0.851079 2.76045 0.753141C2.99688 0.655203 3.26254 0.655203 3.49897 0.753141L4.0536 0.982884C4.13408 1.01611 4.22456 1.01607 4.30498 0.982695L4.30561 0.982434L4.86073 0.753479C5.09708 0.655674 5.36279 0.655642 5.59912 0.753535C5.83551 0.851454 6.02333 1.03925 6.12127 1.27563L6.34566 1.81735C6.34765 1.82163 6.34956 1.82597 6.35138 1.83036C6.38464 1.91081 6.44846 1.97476 6.52882 2.00819L7.08403 2.23817C7.32046 2.33611 7.50831 2.52396 7.60624 2.7604C7.70417 2.99684 7.70417 3.26249 7.60624 3.49893L7.3764 4.05384C7.3597 4.09414 7.35136 4.13708 7.35136 4.17978C7.35136 4.22249 7.3597 4.26523 7.3764 4.30554L7.60624 4.86044C7.70417 5.09688 7.70417 5.36254 7.60624 5.59897C7.50831 5.83541 7.32046 6.02326 7.08403 6.1212L6.52882 6.35118C6.44846 6.38461 6.38464 6.44856 6.35138 6.52901C6.34956 6.53341 6.34765 6.53775 6.34566 6.54202L6.12127 7.08375C6.02333 7.32012 5.83551 7.50792 5.59912 7.60584C5.36279 7.70373 5.09708 7.7037 4.86073 7.6059L4.30561 7.37694L4.30498 7.37668C4.22456 7.34331 4.13408 7.34326 4.0536 7.37649L3.49897 7.60623C3.26254 7.70417 2.99688 7.70417 2.76045 7.60623C2.52401 7.5083 2.33617 7.32044 2.23824 7.08401L2.00833 6.52895C1.97488 6.44868 1.91078 6.38488 1.83042 6.35165L1.27554 6.1218C1.15844 6.07332 1.05204 6.00225 0.962412 5.91265C0.87276 5.82302 0.801647 5.71661 0.753136 5.59949C0.704625 5.48237 0.679667 5.35684 0.679688 5.23007C0.679708 5.10337 0.704759 4.97773 0.753255 4.86068L0.982803 4.30488C0.999434 4.2648 1.0078 4.22227 1.00789 4.17969ZM5.51831 3.60922C5.64257 3.48496 5.64257 3.2835 5.51831 3.15924C5.39405 3.03499 5.19259 3.03499 5.06834 3.15924L3.86151 4.36607L3.45013 3.9547C3.32587 3.83044 3.12441 3.83044 3.00015 3.9547C2.8759 4.07896 2.8759 4.28042 3.00015 4.40468L3.63652 5.04104C3.76077 5.1653 3.96224 5.1653 4.08649 5.04104L5.51831 3.60922Z" fill="#1C63D5"/>
</g>
</svg>
