<svg width="20" height="20" viewBox="0 0 20 20" fill="none" xmlns="http://www.w3.org/2000/svg">
<g id="camera-02">
<g id="Icon">
<path d="M1.66406 6.41554C1.66406 5.17209 2.67209 4.16406 3.91554 4.16406C4.56162 4.16406 5.1352 3.75065 5.33951 3.13773L5.41406 2.91406C5.44922 2.80859 5.4668 2.75585 5.48561 2.70906C5.72577 2.11167 6.28855 1.70603 6.93124 1.66711C6.98157 1.66406 7.03716 1.66406 7.14834 1.66406H12.8464C12.9576 1.66406 13.0132 1.66406 13.0636 1.66711C13.7062 1.70603 14.269 2.11167 14.5092 2.70906C14.528 2.75585 14.5456 2.80859 14.5807 2.91406L14.6553 3.13773C14.8596 3.75065 15.4332 4.16406 16.0792 4.16406C17.3227 4.16406 18.3307 5.17209 18.3307 6.41554V13.4974C18.3307 14.8975 18.3307 15.5976 18.0582 16.1324C17.8186 16.6028 17.4361 16.9852 16.9657 17.2249C16.4309 17.4974 15.7309 17.4974 14.3307 17.4974H5.66406C4.26393 17.4974 3.56387 17.4974 3.02909 17.2249C2.55868 16.9852 2.17623 16.6028 1.93655 16.1324C1.66406 15.5976 1.66406 14.8975 1.66406 13.4974V6.41554Z" stroke="white" stroke-width="1.5" stroke-linecap="round" stroke-linejoin="round"/>
<path d="M9.9974 13.7474C12.0685 13.7474 13.7474 12.0685 13.7474 9.9974C13.7474 7.92633 12.0685 6.2474 9.9974 6.2474C7.92633 6.2474 6.2474 7.92633 6.2474 9.9974C6.2474 12.0685 7.92633 13.7474 9.9974 13.7474Z" stroke="white" stroke-width="1.5" stroke-linecap="round" stroke-linejoin="round"/>
</g>
</g>
</svg>
