<svg width="20" height="20" viewBox="0 0 20 20" fill="none" xmlns="http://www.w3.org/2000/svg">
<g id="Document">
<path id="Icon" d="M16.6693 10.4141V5.66406C16.6693 4.26393 16.6693 3.56387 16.3968 3.02909C16.1571 2.55868 15.7747 2.17623 15.3042 1.93655C14.7695 1.66406 14.0694 1.66406 12.6693 1.66406H7.33594C5.93581 1.66406 5.23574 1.66406 4.70096 1.93655C4.23056 2.17623 3.8481 2.55868 3.60842 3.02909C3.33594 3.56387 3.33594 4.26393 3.33594 5.66406V14.3307C3.33594 15.7309 3.33594 16.4309 3.60842 16.9657C3.8481 17.4361 4.23056 17.8186 4.70096 18.0582C5.23574 18.3307 5.93577 18.3307 7.33582 18.3307H10.4193M11.6693 9.16406H6.66927M8.33594 12.4974H6.66927M13.3359 5.83073H6.66927M12.5026 15.8307L15.0026 18.3307M15.0026 18.3307L17.5026 15.8307M15.0026 18.3307V13.3307" stroke="white" stroke-width="1.5" stroke-linecap="round" stroke-linejoin="round"/>
</g>
</svg>
